<mxfile host="app.diagrams.net" modified="2023-11-07T11:16:04.607Z" agent="Mozilla/5.0 (X11; Linux x86_64) AppleWebKit/537.36 (KHTML, like Gecko) Chrome/117.0.0.0 Safari/537.36" version="22.0.8" etag="3NnIkTGMcvahrC49Kw2S" type="github">
  <diagram name="第 1 页" id="R7kBxN419MpMEu-eJWJp">
    <mxGraphModel>
      <root>
        <mxCell id="0" />
        <mxCell id="1" parent="0" />
      </root>
    </mxGraphModel>
  </diagram>
</mxfile>
